<?xml version="1.0" encoding="UTF-8"?>
<!DOCTYPE svg PUBLIC "-//W3C//DTD SVG 1.1//EN" "http://www.w3.org/Graphics/SVG/1.1/DTD/svg11.dtd">
<svg xmlns="http://www.w3.org/2000/svg" version="1.1" width="592px" height="421px" style="shape-rendering:geometricPrecision; text-rendering:geometricPrecision; image-rendering:optimizeQuality; fill-rule:evenodd; clip-rule:evenodd" xmlns:xlink="http://www.w3.org/1999/xlink">
<g><path style="opacity:1" fill="#e52120" d="M 376.5,296.5 C 377.035,298.446 378.368,299.446 380.5,299.5C 381.035,301.446 382.368,302.446 384.5,302.5C 391.464,307.797 397.798,313.797 403.5,320.5C 403.427,322.027 404.094,323.027 405.5,323.5C 406.5,323.833 407.167,324.5 407.5,325.5C 407.427,327.027 408.094,328.027 409.5,328.5C 410.5,328.833 411.167,329.5 411.5,330.5C 411.427,332.027 412.094,333.027 413.5,333.5C 413.427,335.027 414.094,336.027 415.5,336.5C 416.338,336.842 416.672,337.508 416.5,338.5C 416.738,340.404 417.738,341.738 419.5,342.5C 425.356,351.041 429.689,360.374 432.5,370.5C 432.12,372.698 432.787,374.365 434.5,375.5C 434.5,376.167 434.5,376.833 434.5,377.5C 434.41,380.152 435.076,382.485 436.5,384.5C 439.455,396.187 441.122,408.187 441.5,420.5C 344.167,420.5 246.833,420.5 149.5,420.5C 149.485,397.237 154.485,375.237 164.5,354.5C 165.906,354.027 166.573,353.027 166.5,351.5C 167.326,348.515 168.659,345.849 170.5,343.5C 171.906,343.027 172.573,342.027 172.5,340.5C 173.906,340.027 174.573,339.027 174.5,337.5C 175.906,337.027 176.573,336.027 176.5,334.5C 178.016,331.467 180.016,328.8 182.5,326.5C 184.262,325.738 185.262,324.404 185.5,322.5C 186.5,320.833 187.833,319.5 189.5,318.5C 191.914,317.089 193.581,315.089 194.5,312.5C 196.404,312.262 197.738,311.262 198.5,309.5C 201.752,305.216 205.752,301.882 210.5,299.5C 212.404,299.262 213.738,298.262 214.5,296.5C 216.027,296.573 217.027,295.906 217.5,294.5C 218.899,293.11 220.566,292.11 222.5,291.5C 224.027,291.573 225.027,290.906 225.5,289.5C 230.735,286.051 236.402,283.384 242.5,281.5C 245.716,281.655 248.383,280.655 250.5,278.5C 250.833,278.5 251.167,278.5 251.5,278.5C 254.152,278.59 256.485,277.924 258.5,276.5C 261.152,276.59 263.485,275.924 265.5,274.5C 305.724,266.256 342.724,273.589 376.5,296.5 Z"/></g>
<g><path style="opacity:0.941" fill="#f58178" d="M 265.5,274.5 C 263.485,275.924 261.152,276.59 258.5,276.5C 260.515,275.076 262.848,274.41 265.5,274.5 Z"/></g>
<g><path style="opacity:0.945" fill="#f47a71" d="M 258.5,276.5 C 256.485,277.924 254.152,278.59 251.5,278.5C 253.515,277.076 255.848,276.41 258.5,276.5 Z"/></g>
<g><path style="opacity:0.973" fill="#f5786c" d="M 250.5,278.5 C 248.383,280.655 245.716,281.655 242.5,281.5C 244.936,280.129 247.603,279.129 250.5,278.5 Z"/></g>
<g><path style="opacity:0.769" fill="#f99b95" d="M 225.5,289.5 C 225.027,290.906 224.027,291.573 222.5,291.5C 222.973,290.094 223.973,289.427 225.5,289.5 Z"/></g>
<g><path style="opacity:0.765" fill="#f8958f" d="M 217.5,294.5 C 217.027,295.906 216.027,296.573 214.5,296.5C 214.973,295.094 215.973,294.427 217.5,294.5 Z"/></g>
<g><path style="opacity:0.718" fill="#f8928b" d="M 214.5,296.5 C 213.738,298.262 212.404,299.262 210.5,299.5C 211.262,297.738 212.596,296.738 214.5,296.5 Z"/></g>
<g><path style="opacity:0.976" fill="#fc9d92" d="M 376.5,296.5 C 378.23,297.026 379.564,298.026 380.5,299.5C 378.368,299.446 377.035,298.446 376.5,296.5 Z"/></g>
<g><path style="opacity:0.965" fill="#fc9b90" d="M 380.5,299.5 C 382.23,300.026 383.564,301.026 384.5,302.5C 382.368,302.446 381.035,301.446 380.5,299.5 Z"/></g>
<g><path style="opacity:1" fill="#fdf9f8" d="M 370.5,307.5 C 385.235,308.046 391.068,315.379 388,329.5C 383.464,336.844 376.964,339.344 368.5,337C 360.452,333.405 357.285,327.238 359,318.5C 361.437,313.226 365.271,309.56 370.5,307.5 Z"/></g>
<g><path style="opacity:0.561" fill="#f9a39f" d="M 198.5,309.5 C 197.738,311.262 196.404,312.262 194.5,312.5C 195.262,310.738 196.596,309.738 198.5,309.5 Z"/></g>
<g><path style="opacity:0.62" fill="#faa6a2" d="M 194.5,312.5 C 193.581,315.089 191.914,317.089 189.5,318.5C 190.419,315.911 192.086,313.911 194.5,312.5 Z"/></g>
<g><path style="opacity:1" fill="#0c0c0c" d="M 371.5,317.5 C 378.745,317.555 380.745,320.722 377.5,327C 371.24,329.412 368.407,327.245 369,320.5C 369.698,319.309 370.531,318.309 371.5,317.5 Z"/></g>
<g><path style="opacity:0.718" fill="#faa19c" d="M 403.5,320.5 C 404.906,320.973 405.573,321.973 405.5,323.5C 404.094,323.027 403.427,322.027 403.5,320.5 Z"/></g>
<g><path style="opacity:0.78" fill="#fa9f99" d="M 185.5,322.5 C 185.262,324.404 184.262,325.738 182.5,326.5C 182.738,324.596 183.738,323.262 185.5,322.5 Z"/></g>
<g><path style="opacity:0.553" fill="#f89994" d="M 407.5,325.5 C 408.906,325.973 409.573,326.973 409.5,328.5C 408.094,328.027 407.427,327.027 407.5,325.5 Z"/></g>
<g><path style="opacity:0.392" fill="#fab2af" d="M 411.5,330.5 C 412.906,330.973 413.573,331.973 413.5,333.5C 412.094,333.027 411.427,332.027 411.5,330.5 Z"/></g>
<g><path style="opacity:0.396" fill="#faaba7" d="M 413.5,333.5 C 414.906,333.973 415.573,334.973 415.5,336.5C 414.094,336.027 413.427,335.027 413.5,333.5 Z"/></g>
<g><path style="opacity:0.404" fill="#faa7a3" d="M 176.5,334.5 C 176.573,336.027 175.906,337.027 174.5,337.5C 174.427,335.973 175.094,334.973 176.5,334.5 Z"/></g>
<g><path style="opacity:0.42" fill="#f9aba8" d="M 174.5,337.5 C 174.573,339.027 173.906,340.027 172.5,340.5C 172.427,338.973 173.094,337.973 174.5,337.5 Z"/></g>
<g><path style="opacity:0.898" fill="#f9928a" d="M 416.5,338.5 C 418.262,339.262 419.262,340.596 419.5,342.5C 417.738,341.738 416.738,340.404 416.5,338.5 Z"/></g>
<g><path style="opacity:0.329" fill="#fab1ae" d="M 172.5,340.5 C 172.573,342.027 171.906,343.027 170.5,343.5C 170.427,341.973 171.094,340.973 172.5,340.5 Z"/></g>
<g><path style="opacity:0.318" fill="#fbb5b1" d="M 166.5,351.5 C 166.573,353.027 165.906,354.027 164.5,354.5C 164.427,352.973 165.094,351.973 166.5,351.5 Z"/></g>
<g><path style="opacity:0.914" fill="#f99289" d="M 432.5,370.5 C 433.537,371.93 434.204,373.597 434.5,375.5C 432.787,374.365 432.12,372.698 432.5,370.5 Z"/></g>
<g><path style="opacity:0.69" fill="#f58983" d="M 434.5,377.5 C 435.924,379.515 436.59,381.848 436.5,384.5C 435.076,382.485 434.41,380.152 434.5,377.5 Z"/></g>
</svg>
