<?xml version="1.0" encoding="UTF-8"?>
<!DOCTYPE svg PUBLIC "-//W3C//DTD SVG 1.1//EN" "http://www.w3.org/Graphics/SVG/1.1/DTD/svg11.dtd">
<svg xmlns="http://www.w3.org/2000/svg" version="1.1" width="592px" height="421px" style="shape-rendering:geometricPrecision; text-rendering:geometricPrecision; image-rendering:optimizeQuality; fill-rule:evenodd; clip-rule:evenodd" xmlns:xlink="http://www.w3.org/1999/xlink">
<g><path style="opacity:1" fill="#4e950a" d="M 441.5,420.5 C 344.167,420.5 246.833,420.5 149.5,420.5C 150.769,368.122 172.435,326.622 214.5,296C 258.253,268.316 304.253,263.983 352.5,283C 408.854,311.252 438.52,357.086 441.5,420.5 Z"/></g>
<g><path style="opacity:1" fill="#fafbf9" d="M 219.5,308.5 C 235.486,308.636 241.319,316.303 237,331.5C 230.662,338.797 223.162,340.297 214.5,336C 208.78,331.116 206.947,324.95 209,317.5C 211.505,313.189 215.005,310.189 219.5,308.5 Z"/></g>
<g><path style="opacity:1" fill="#0f0f0f" d="M 220.5,318.5 C 227,317.499 229.5,320.165 228,326.5C 224.303,330.582 220.97,330.249 218,325.5C 217.333,324.167 217.333,322.833 218,321.5C 219.045,320.627 219.878,319.627 220.5,318.5 Z"/></g>
</svg>
